<svg id="Layer_1" data-name="Layer 1" xmlns="http://www.w3.org/2000/svg" viewBox="0 0 329.32 163.48"><defs><style>.cls-1{fill:#d1d3d4;}.cls-2{fill:#f7941d;}</style></defs><path class="cls-1" d="M332,65.62H114.63A12.2,12.2,0,0,0,107.42,68L78.85,89a8.7,8.7,0,0,0-3.55,7V196.45a11,11,0,0,0,4.14,8.6l27.3,21.77a10.46,10.46,0,0,0,6.5,2.28H331.55A13.41,13.41,0,0,0,345,215.68V78.61A13,13,0,0,0,332,65.62ZM158.44,208H133V182.52h25.46Zm0-95.6H133V86.92h25.46ZM208.09,208H182.63V182.52h25.46Zm0-95.6H182.63V86.92h25.46ZM257.74,208H232.28V182.52h25.46Zm0-95.6H232.28V86.92h25.46ZM307.39,208H281.93V182.52h25.46Zm0-95.6H281.93V86.92h25.46Z" transform="translate(-15.65 -65.62)"/><path class="cls-2" d="M48,178.79,16.77,149.65a3.54,3.54,0,0,1,0-5.18L48,115.33a3.54,3.54,0,0,1,6,2.59V176.2A3.54,3.54,0,0,1,48,178.79Z" transform="translate(-15.65 -65.62)"/></svg>